<mxfile host="app.diagrams.net" modified="2023-10-13T07:03:31.661Z" agent="Mozilla/5.0 (Windows NT 10.0; Win64; x64) AppleWebKit/537.36 (KHTML, like Gecko) Chrome/117.0.0.0 Safari/537.36" version="22.0.4" etag="qseF3p8HVM8pyhWram3G" type="github">
  <diagram name="페이지-1" id="GnXuT3SM96W-iKES_bs6">
    <mxGraphModel>
      <root>
        <mxCell id="0" />
        <mxCell id="1" parent="0" />
      </root>
    </mxGraphModel>
  </diagram>
</mxfile>
